<svg xmlns="http://www.w3.org/2000/svg" width="1000" height="1000" viewBox="0 0 1000 1000"><rect width="1000" height="1000" fill="#ffffff"/><rect x="108.11" y="108.11" width="27.03" height="27.03" fill="#b980ff"/><rect x="135.14" y="108.11" width="27.03" height="27.03" fill="#b980ff"/><rect x="162.16" y="108.11" width="27.03" height="27.03" fill="#b980ff"/><rect x="189.19" y="108.11" width="27.03" height="27.03" fill="#b980ff"/><rect x="216.22" y="108.11" width="27.03" height="27.03" fill="#b980ff"/><rect x="243.24" y="108.11" width="27.03" height="27.03" fill="#b980ff"/><rect x="270.27" y="108.11" width="27.03" height="27.03" fill="#b980ff"/><rect x="351.35" y="108.11" width="27.03" height="27.03" fill="#b980ff"/><rect x="432.43" y="108.11" width="27.03" height="27.03" fill="#b980ff"/><rect x="513.51" y="108.11" width="27.03" height="27.03" fill="#b980ff"/><rect x="540.54" y="108.11" width="27.03" height="27.03" fill="#b980ff"/><rect x="567.57" y="108.11" width="27.03" height="27.03" fill="#b980ff"/><rect x="594.59" y="108.11" width="27.03" height="27.03" fill="#b980ff"/><rect x="621.62" y="108.11" width="27.03" height="27.03" fill="#b980ff"/><rect x="648.65" y="108.11" width="27.03" height="27.03" fill="#b980ff"/><rect x="702.70" y="108.11" width="27.03" height="27.03" fill="#b980ff"/><rect x="729.73" y="108.11" width="27.03" height="27.03" fill="#b980ff"/><rect x="756.76" y="108.11" width="27.03" height="27.03" fill="#b980ff"/><rect x="783.78" y="108.11" width="27.03" height="27.03" fill="#b980ff"/><rect x="810.81" y="108.11" width="27.03" height="27.03" fill="#b980ff"/><rect x="837.84" y="108.11" width="27.03" height="27.03" fill="#b980ff"/><rect x="864.86" y="108.11" width="27.03" height="27.03" fill="#b980ff"/><rect x="108.11" y="135.14" width="27.03" height="27.03" fill="#b980ff"/><rect x="270.27" y="135.14" width="27.03" height="27.03" fill="#b980ff"/><rect x="351.35" y="135.14" width="27.03" height="27.03" fill="#b980ff"/><rect x="378.38" y="135.14" width="27.03" height="27.03" fill="#b980ff"/><rect x="405.41" y="135.14" width="27.03" height="27.03" fill="#b980ff"/><rect x="432.43" y="135.14" width="27.03" height="27.03" fill="#b980ff"/><rect x="648.65" y="135.14" width="27.03" height="27.03" fill="#b980ff"/><rect x="702.70" y="135.14" width="27.03" height="27.03" fill="#b980ff"/><rect x="864.86" y="135.14" width="27.03" height="27.03" fill="#b980ff"/><rect x="108.11" y="162.16" width="27.03" height="27.03" fill="#b980ff"/><rect x="162.16" y="162.16" width="27.03" height="27.03" fill="#b980ff"/><rect x="189.19" y="162.16" width="27.03" height="27.03" fill="#b980ff"/><rect x="216.22" y="162.16" width="27.03" height="27.03" fill="#b980ff"/><rect x="270.27" y="162.16" width="27.03" height="27.03" fill="#b980ff"/><rect x="324.32" y="162.16" width="27.03" height="27.03" fill="#b980ff"/><rect x="378.38" y="162.16" width="27.03" height="27.03" fill="#b980ff"/><rect x="486.49" y="162.16" width="27.03" height="27.03" fill="#b980ff"/><rect x="540.54" y="162.16" width="27.03" height="27.03" fill="#b980ff"/><rect x="621.62" y="162.16" width="27.03" height="27.03" fill="#b980ff"/><rect x="648.65" y="162.16" width="27.03" height="27.03" fill="#b980ff"/><rect x="702.70" y="162.16" width="27.03" height="27.03" fill="#b980ff"/><rect x="756.76" y="162.16" width="27.03" height="27.03" fill="#b980ff"/><rect x="783.78" y="162.16" width="27.03" height="27.03" fill="#b980ff"/><rect x="810.81" y="162.16" width="27.03" height="27.03" fill="#b980ff"/><rect x="864.86" y="162.16" width="27.03" height="27.03" fill="#b980ff"/><rect x="108.11" y="189.19" width="27.03" height="27.03" fill="#b980ff"/><rect x="162.16" y="189.19" width="27.03" height="27.03" fill="#b980ff"/><rect x="189.19" y="189.19" width="27.03" height="27.03" fill="#b980ff"/><rect x="216.22" y="189.19" width="27.03" height="27.03" fill="#b980ff"/><rect x="270.27" y="189.19" width="27.03" height="27.03" fill="#b980ff"/><rect x="324.32" y="189.19" width="27.03" height="27.03" fill="#b980ff"/><rect x="405.41" y="189.19" width="27.03" height="27.03" fill="#b980ff"/><rect x="432.43" y="189.19" width="27.03" height="27.03" fill="#b980ff"/><rect x="540.54" y="189.19" width="27.03" height="27.03" fill="#b980ff"/><rect x="567.57" y="189.19" width="27.03" height="27.03" fill="#b980ff"/><rect x="594.59" y="189.19" width="27.03" height="27.03" fill="#b980ff"/><rect x="621.62" y="189.19" width="27.03" height="27.03" fill="#b980ff"/><rect x="702.70" y="189.19" width="27.03" height="27.03" fill="#b980ff"/><rect x="756.76" y="189.19" width="27.03" height="27.03" fill="#b980ff"/><rect x="783.78" y="189.19" width="27.03" height="27.03" fill="#b980ff"/><rect x="810.81" y="189.19" width="27.03" height="27.03" fill="#b980ff"/><rect x="864.86" y="189.19" width="27.03" height="27.03" fill="#b980ff"/><rect x="108.11" y="216.22" width="27.03" height="27.03" fill="#b980ff"/><rect x="162.16" y="216.22" width="27.03" height="27.03" fill="#b980ff"/><rect x="189.19" y="216.22" width="27.03" height="27.03" fill="#b980ff"/><rect x="216.22" y="216.22" width="27.03" height="27.03" fill="#b980ff"/><rect x="270.27" y="216.22" width="27.03" height="27.03" fill="#b980ff"/><rect x="324.32" y="216.22" width="27.03" height="27.03" fill="#b980ff"/><rect x="459.46" y="216.22" width="27.03" height="27.03" fill="#b980ff"/><rect x="486.49" y="216.22" width="27.03" height="27.03" fill="#b980ff"/><rect x="513.51" y="216.22" width="27.03" height="27.03" fill="#b980ff"/><rect x="594.59" y="216.22" width="27.03" height="27.03" fill="#b980ff"/><rect x="621.62" y="216.22" width="27.03" height="27.03" fill="#b980ff"/><rect x="648.65" y="216.22" width="27.03" height="27.03" fill="#b980ff"/><rect x="702.70" y="216.22" width="27.03" height="27.03" fill="#b980ff"/><rect x="756.76" y="216.22" width="27.03" height="27.03" fill="#b980ff"/><rect x="783.78" y="216.22" width="27.03" height="27.03" fill="#b980ff"/><rect x="810.81" y="216.22" width="27.03" height="27.03" fill="#b980ff"/><rect x="864.86" y="216.22" width="27.03" height="27.03" fill="#b980ff"/><rect x="108.11" y="243.24" width="27.03" height="27.03" fill="#b980ff"/><rect x="270.27" y="243.24" width="27.03" height="27.03" fill="#b980ff"/><rect x="324.32" y="243.24" width="27.03" height="27.03" fill="#b980ff"/><rect x="378.38" y="243.24" width="27.03" height="27.03" fill="#b980ff"/><rect x="405.41" y="243.24" width="27.03" height="27.03" fill="#b980ff"/><rect x="459.46" y="243.24" width="27.03" height="27.03" fill="#b980ff"/><rect x="486.49" y="243.24" width="27.03" height="27.03" fill="#b980ff"/><rect x="513.51" y="243.24" width="27.03" height="27.03" fill="#b980ff"/><rect x="540.54" y="243.24" width="27.03" height="27.03" fill="#b980ff"/><rect x="594.59" y="243.24" width="27.03" height="27.03" fill="#b980ff"/><rect x="648.65" y="243.24" width="27.03" height="27.03" fill="#b980ff"/><rect x="702.70" y="243.24" width="27.03" height="27.03" fill="#b980ff"/><rect x="864.86" y="243.24" width="27.03" height="27.03" fill="#b980ff"/><rect x="108.11" y="270.27" width="27.03" height="27.03" fill="#b980ff"/><rect x="135.14" y="270.27" width="27.03" height="27.03" fill="#b980ff"/><rect x="162.16" y="270.27" width="27.03" height="27.03" fill="#b980ff"/><rect x="189.19" y="270.27" width="27.03" height="27.03" fill="#b980ff"/><rect x="216.22" y="270.27" width="27.03" height="27.03" fill="#b980ff"/><rect x="243.24" y="270.27" width="27.03" height="27.03" fill="#b980ff"/><rect x="270.27" y="270.27" width="27.03" height="27.03" fill="#b980ff"/><rect x="324.32" y="270.27" width="27.03" height="27.03" fill="#b980ff"/><rect x="378.38" y="270.27" width="27.03" height="27.03" fill="#b980ff"/><rect x="432.43" y="270.27" width="27.03" height="27.03" fill="#b980ff"/><rect x="486.49" y="270.27" width="27.03" height="27.03" fill="#b980ff"/><rect x="540.54" y="270.27" width="27.03" height="27.03" fill="#b980ff"/><rect x="594.59" y="270.27" width="27.03" height="27.03" fill="#b980ff"/><rect x="648.65" y="270.27" width="27.03" height="27.03" fill="#b980ff"/><rect x="702.70" y="270.27" width="27.03" height="27.03" fill="#b980ff"/><rect x="729.73" y="270.27" width="27.03" height="27.03" fill="#b980ff"/><rect x="756.76" y="270.27" width="27.03" height="27.03" fill="#b980ff"/><rect x="783.78" y="270.27" width="27.03" height="27.03" fill="#b980ff"/><rect x="810.81" y="270.27" width="27.03" height="27.03" fill="#b980ff"/><rect x="837.84" y="270.27" width="27.03" height="27.03" fill="#b980ff"/><rect x="864.86" y="270.27" width="27.03" height="27.03" fill="#b980ff"/><rect x="324.32" y="297.30" width="27.03" height="27.03" fill="#b980ff"/><rect x="432.43" y="297.30" width="27.03" height="27.03" fill="#b980ff"/><rect x="459.46" y="297.30" width="27.03" height="27.03" fill="#b980ff"/><rect x="513.51" y="297.30" width="27.03" height="27.03" fill="#b980ff"/><rect x="594.59" y="297.30" width="27.03" height="27.03" fill="#b980ff"/><rect x="621.62" y="297.30" width="27.03" height="27.03" fill="#b980ff"/><rect x="108.11" y="324.32" width="27.03" height="27.03" fill="#b980ff"/><rect x="162.16" y="324.32" width="27.03" height="27.03" fill="#b980ff"/><rect x="189.19" y="324.32" width="27.03" height="27.03" fill="#b980ff"/><rect x="216.22" y="324.32" width="27.03" height="27.03" fill="#b980ff"/><rect x="243.24" y="324.32" width="27.03" height="27.03" fill="#b980ff"/><rect x="270.27" y="324.32" width="27.03" height="27.03" fill="#b980ff"/><rect x="351.35" y="324.32" width="27.03" height="27.03" fill="#b980ff"/><rect x="378.38" y="324.32" width="27.03" height="27.03" fill="#b980ff"/><rect x="486.49" y="324.32" width="27.03" height="27.03" fill="#b980ff"/><rect x="513.51" y="324.32" width="27.03" height="27.03" fill="#b980ff"/><rect x="702.70" y="324.32" width="27.03" height="27.03" fill="#b980ff"/><rect x="729.73" y="324.32" width="27.03" height="27.03" fill="#b980ff"/><rect x="756.76" y="324.32" width="27.03" height="27.03" fill="#b980ff"/><rect x="783.78" y="324.32" width="27.03" height="27.03" fill="#b980ff"/><rect x="810.81" y="324.32" width="27.03" height="27.03" fill="#b980ff"/><rect x="108.11" y="351.35" width="27.03" height="27.03" fill="#b980ff"/><rect x="162.16" y="351.35" width="27.03" height="27.03" fill="#b980ff"/><rect x="189.19" y="351.35" width="27.03" height="27.03" fill="#b980ff"/><rect x="216.22" y="351.35" width="27.03" height="27.03" fill="#b980ff"/><rect x="243.24" y="351.35" width="27.03" height="27.03" fill="#b980ff"/><rect x="324.32" y="351.35" width="27.03" height="27.03" fill="#b980ff"/><rect x="432.43" y="351.35" width="27.03" height="27.03" fill="#b980ff"/><rect x="513.51" y="351.35" width="27.03" height="27.03" fill="#b980ff"/><rect x="540.54" y="351.35" width="27.03" height="27.03" fill="#b980ff"/><rect x="567.57" y="351.35" width="27.03" height="27.03" fill="#b980ff"/><rect x="594.59" y="351.35" width="27.03" height="27.03" fill="#b980ff"/><rect x="621.62" y="351.35" width="27.03" height="27.03" fill="#b980ff"/><rect x="648.65" y="351.35" width="27.03" height="27.03" fill="#b980ff"/><rect x="675.68" y="351.35" width="27.03" height="27.03" fill="#b980ff"/><rect x="702.70" y="351.35" width="27.03" height="27.03" fill="#b980ff"/><rect x="756.76" y="351.35" width="27.03" height="27.03" fill="#b980ff"/><rect x="864.86" y="351.35" width="27.03" height="27.03" fill="#b980ff"/><rect x="162.16" y="378.38" width="27.03" height="27.03" fill="#b980ff"/><rect x="270.27" y="378.38" width="27.03" height="27.03" fill="#b980ff"/><rect x="324.32" y="378.38" width="27.03" height="27.03" fill="#b980ff"/><rect x="405.41" y="378.38" width="27.03" height="27.03" fill="#b980ff"/><rect x="567.57" y="378.38" width="27.03" height="27.03" fill="#b980ff"/><rect x="702.70" y="378.38" width="27.03" height="27.03" fill="#b980ff"/><rect x="729.73" y="378.38" width="27.03" height="27.03" fill="#b980ff"/><rect x="756.76" y="378.38" width="27.03" height="27.03" fill="#b980ff"/><rect x="108.11" y="405.41" width="27.03" height="27.03" fill="#b980ff"/><rect x="135.14" y="405.41" width="27.03" height="27.03" fill="#b980ff"/><rect x="162.16" y="405.41" width="27.03" height="27.03" fill="#b980ff"/><rect x="189.19" y="405.41" width="27.03" height="27.03" fill="#b980ff"/><rect x="216.22" y="405.41" width="27.03" height="27.03" fill="#b980ff"/><rect x="324.32" y="405.41" width="27.03" height="27.03" fill="#b980ff"/><rect x="351.35" y="405.41" width="27.03" height="27.03" fill="#b980ff"/><rect x="378.38" y="405.41" width="27.03" height="27.03" fill="#b980ff"/><rect x="486.49" y="405.41" width="27.03" height="27.03" fill="#b980ff"/><rect x="540.54" y="405.41" width="27.03" height="27.03" fill="#b980ff"/><rect x="567.57" y="405.41" width="27.03" height="27.03" fill="#b980ff"/><rect x="621.62" y="405.41" width="27.03" height="27.03" fill="#b980ff"/><rect x="648.65" y="405.41" width="27.03" height="27.03" fill="#b980ff"/><rect x="675.68" y="405.41" width="27.03" height="27.03" fill="#b980ff"/><rect x="702.70" y="405.41" width="27.03" height="27.03" fill="#b980ff"/><rect x="729.73" y="405.41" width="27.03" height="27.03" fill="#b980ff"/><rect x="756.76" y="405.41" width="27.03" height="27.03" fill="#b980ff"/><rect x="783.78" y="405.41" width="27.03" height="27.03" fill="#b980ff"/><rect x="837.84" y="405.41" width="27.03" height="27.03" fill="#b980ff"/><rect x="162.16" y="432.43" width="27.03" height="27.03" fill="#b980ff"/><rect x="216.22" y="432.43" width="27.03" height="27.03" fill="#b980ff"/><rect x="243.24" y="432.43" width="27.03" height="27.03" fill="#b980ff"/><rect x="270.27" y="432.43" width="27.03" height="27.03" fill="#b980ff"/><rect x="432.43" y="432.43" width="27.03" height="27.03" fill="#b980ff"/><rect x="540.54" y="432.43" width="27.03" height="27.03" fill="#b980ff"/><rect x="594.59" y="432.43" width="27.03" height="27.03" fill="#b980ff"/><rect x="621.62" y="432.43" width="27.03" height="27.03" fill="#b980ff"/><rect x="783.78" y="432.43" width="27.03" height="27.03" fill="#b980ff"/><rect x="810.81" y="432.43" width="27.03" height="27.03" fill="#b980ff"/><rect x="108.11" y="459.46" width="27.03" height="27.03" fill="#b980ff"/><rect x="135.14" y="459.46" width="27.03" height="27.03" fill="#b980ff"/><rect x="162.16" y="459.46" width="27.03" height="27.03" fill="#b980ff"/><rect x="216.22" y="459.46" width="27.03" height="27.03" fill="#b980ff"/><rect x="297.30" y="459.46" width="27.03" height="27.03" fill="#b980ff"/><rect x="432.43" y="459.46" width="27.03" height="27.03" fill="#b980ff"/><rect x="459.46" y="459.46" width="27.03" height="27.03" fill="#b980ff"/><rect x="486.49" y="459.46" width="27.03" height="27.03" fill="#b980ff"/><rect x="513.51" y="459.46" width="27.03" height="27.03" fill="#b980ff"/><rect x="567.57" y="459.46" width="27.03" height="27.03" fill="#b980ff"/><rect x="621.62" y="459.46" width="27.03" height="27.03" fill="#b980ff"/><rect x="675.68" y="459.46" width="27.03" height="27.03" fill="#b980ff"/><rect x="702.70" y="459.46" width="27.03" height="27.03" fill="#b980ff"/><rect x="729.73" y="459.46" width="27.03" height="27.03" fill="#b980ff"/><rect x="756.76" y="459.46" width="27.03" height="27.03" fill="#b980ff"/><rect x="864.86" y="459.46" width="27.03" height="27.03" fill="#b980ff"/><rect x="162.16" y="486.49" width="27.03" height="27.03" fill="#b980ff"/><rect x="189.19" y="486.49" width="27.03" height="27.03" fill="#b980ff"/><rect x="243.24" y="486.49" width="27.03" height="27.03" fill="#b980ff"/><rect x="270.27" y="486.49" width="27.03" height="27.03" fill="#b980ff"/><rect x="297.30" y="486.49" width="27.03" height="27.03" fill="#b980ff"/><rect x="351.35" y="486.49" width="27.03" height="27.03" fill="#b980ff"/><rect x="378.38" y="486.49" width="27.03" height="27.03" fill="#b980ff"/><rect x="405.41" y="486.49" width="27.03" height="27.03" fill="#b980ff"/><rect x="459.46" y="486.49" width="27.03" height="27.03" fill="#b980ff"/><rect x="486.49" y="486.49" width="27.03" height="27.03" fill="#b980ff"/><rect x="513.51" y="486.49" width="27.03" height="27.03" fill="#b980ff"/><rect x="540.54" y="486.49" width="27.03" height="27.03" fill="#b980ff"/><rect x="567.57" y="486.49" width="27.03" height="27.03" fill="#b980ff"/><rect x="594.59" y="486.49" width="27.03" height="27.03" fill="#b980ff"/><rect x="702.70" y="486.49" width="27.03" height="27.03" fill="#b980ff"/><rect x="756.76" y="486.49" width="27.03" height="27.03" fill="#b980ff"/><rect x="783.78" y="486.49" width="27.03" height="27.03" fill="#b980ff"/><rect x="810.81" y="486.49" width="27.03" height="27.03" fill="#b980ff"/><rect x="135.14" y="513.51" width="27.03" height="27.03" fill="#b980ff"/><rect x="162.16" y="513.51" width="27.03" height="27.03" fill="#b980ff"/><rect x="189.19" y="513.51" width="27.03" height="27.03" fill="#b980ff"/><rect x="216.22" y="513.51" width="27.03" height="27.03" fill="#b980ff"/><rect x="243.24" y="513.51" width="27.03" height="27.03" fill="#b980ff"/><rect x="324.32" y="513.51" width="27.03" height="27.03" fill="#b980ff"/><rect x="351.35" y="513.51" width="27.03" height="27.03" fill="#b980ff"/><rect x="378.38" y="513.51" width="27.03" height="27.03" fill="#b980ff"/><rect x="405.41" y="513.51" width="27.03" height="27.03" fill="#b980ff"/><rect x="459.46" y="513.51" width="27.03" height="27.03" fill="#b980ff"/><rect x="513.51" y="513.51" width="27.03" height="27.03" fill="#b980ff"/><rect x="594.59" y="513.51" width="27.03" height="27.03" fill="#b980ff"/><rect x="621.62" y="513.51" width="27.03" height="27.03" fill="#b980ff"/><rect x="675.68" y="513.51" width="27.03" height="27.03" fill="#b980ff"/><rect x="702.70" y="513.51" width="27.03" height="27.03" fill="#b980ff"/><rect x="729.73" y="513.51" width="27.03" height="27.03" fill="#b980ff"/><rect x="756.76" y="513.51" width="27.03" height="27.03" fill="#b980ff"/><rect x="837.84" y="513.51" width="27.03" height="27.03" fill="#b980ff"/><rect x="189.19" y="540.54" width="27.03" height="27.03" fill="#b980ff"/><rect x="216.22" y="540.54" width="27.03" height="27.03" fill="#b980ff"/><rect x="243.24" y="540.54" width="27.03" height="27.03" fill="#b980ff"/><rect x="270.27" y="540.54" width="27.03" height="27.03" fill="#b980ff"/><rect x="351.35" y="540.54" width="27.03" height="27.03" fill="#b980ff"/><rect x="378.38" y="540.54" width="27.03" height="27.03" fill="#b980ff"/><rect x="405.41" y="540.54" width="27.03" height="27.03" fill="#b980ff"/><rect x="486.49" y="540.54" width="27.03" height="27.03" fill="#b980ff"/><rect x="513.51" y="540.54" width="27.03" height="27.03" fill="#b980ff"/><rect x="594.59" y="540.54" width="27.03" height="27.03" fill="#b980ff"/><rect x="648.65" y="540.54" width="27.03" height="27.03" fill="#b980ff"/><rect x="783.78" y="540.54" width="27.03" height="27.03" fill="#b980ff"/><rect x="810.81" y="540.54" width="27.03" height="27.03" fill="#b980ff"/><rect x="108.11" y="567.57" width="27.03" height="27.03" fill="#b980ff"/><rect x="135.14" y="567.57" width="27.03" height="27.03" fill="#b980ff"/><rect x="162.16" y="567.57" width="27.03" height="27.03" fill="#b980ff"/><rect x="189.19" y="567.57" width="27.03" height="27.03" fill="#b980ff"/><rect x="297.30" y="567.57" width="27.03" height="27.03" fill="#b980ff"/><rect x="378.38" y="567.57" width="27.03" height="27.03" fill="#b980ff"/><rect x="405.41" y="567.57" width="27.03" height="27.03" fill="#b980ff"/><rect x="432.43" y="567.57" width="27.03" height="27.03" fill="#b980ff"/><rect x="513.51" y="567.57" width="27.03" height="27.03" fill="#b980ff"/><rect x="540.54" y="567.57" width="27.03" height="27.03" fill="#b980ff"/><rect x="567.57" y="567.57" width="27.03" height="27.03" fill="#b980ff"/><rect x="621.62" y="567.57" width="27.03" height="27.03" fill="#b980ff"/><rect x="648.65" y="567.57" width="27.03" height="27.03" fill="#b980ff"/><rect x="675.68" y="567.57" width="27.03" height="27.03" fill="#b980ff"/><rect x="702.70" y="567.57" width="27.03" height="27.03" fill="#b980ff"/><rect x="729.73" y="567.57" width="27.03" height="27.03" fill="#b980ff"/><rect x="756.76" y="567.57" width="27.03" height="27.03" fill="#b980ff"/><rect x="810.81" y="567.57" width="27.03" height="27.03" fill="#b980ff"/><rect x="864.86" y="567.57" width="27.03" height="27.03" fill="#b980ff"/><rect x="108.11" y="594.59" width="27.03" height="27.03" fill="#b980ff"/><rect x="189.19" y="594.59" width="27.03" height="27.03" fill="#b980ff"/><rect x="243.24" y="594.59" width="27.03" height="27.03" fill="#b980ff"/><rect x="270.27" y="594.59" width="27.03" height="27.03" fill="#b980ff"/><rect x="324.32" y="594.59" width="27.03" height="27.03" fill="#b980ff"/><rect x="432.43" y="594.59" width="27.03" height="27.03" fill="#b980ff"/><rect x="648.65" y="594.59" width="27.03" height="27.03" fill="#b980ff"/><rect x="675.68" y="594.59" width="27.03" height="27.03" fill="#b980ff"/><rect x="702.70" y="594.59" width="27.03" height="27.03" fill="#b980ff"/><rect x="729.73" y="594.59" width="27.03" height="27.03" fill="#b980ff"/><rect x="810.81" y="594.59" width="27.03" height="27.03" fill="#b980ff"/><rect x="108.11" y="621.62" width="27.03" height="27.03" fill="#b980ff"/><rect x="162.16" y="621.62" width="27.03" height="27.03" fill="#b980ff"/><rect x="243.24" y="621.62" width="27.03" height="27.03" fill="#b980ff"/><rect x="297.30" y="621.62" width="27.03" height="27.03" fill="#b980ff"/><rect x="324.32" y="621.62" width="27.03" height="27.03" fill="#b980ff"/><rect x="378.38" y="621.62" width="27.03" height="27.03" fill="#b980ff"/><rect x="405.41" y="621.62" width="27.03" height="27.03" fill="#b980ff"/><rect x="432.43" y="621.62" width="27.03" height="27.03" fill="#b980ff"/><rect x="486.49" y="621.62" width="27.03" height="27.03" fill="#b980ff"/><rect x="540.54" y="621.62" width="27.03" height="27.03" fill="#b980ff"/><rect x="567.57" y="621.62" width="27.03" height="27.03" fill="#b980ff"/><rect x="594.59" y="621.62" width="27.03" height="27.03" fill="#b980ff"/><rect x="729.73" y="621.62" width="27.03" height="27.03" fill="#b980ff"/><rect x="837.84" y="621.62" width="27.03" height="27.03" fill="#b980ff"/><rect x="108.11" y="648.65" width="27.03" height="27.03" fill="#b980ff"/><rect x="162.16" y="648.65" width="27.03" height="27.03" fill="#b980ff"/><rect x="216.22" y="648.65" width="27.03" height="27.03" fill="#b980ff"/><rect x="270.27" y="648.65" width="27.03" height="27.03" fill="#b980ff"/><rect x="297.30" y="648.65" width="27.03" height="27.03" fill="#b980ff"/><rect x="324.32" y="648.65" width="27.03" height="27.03" fill="#b980ff"/><rect x="351.35" y="648.65" width="27.03" height="27.03" fill="#b980ff"/><rect x="567.57" y="648.65" width="27.03" height="27.03" fill="#b980ff"/><rect x="648.65" y="648.65" width="27.03" height="27.03" fill="#b980ff"/><rect x="675.68" y="648.65" width="27.03" height="27.03" fill="#b980ff"/><rect x="702.70" y="648.65" width="27.03" height="27.03" fill="#b980ff"/><rect x="729.73" y="648.65" width="27.03" height="27.03" fill="#b980ff"/><rect x="756.76" y="648.65" width="27.03" height="27.03" fill="#b980ff"/><rect x="810.81" y="648.65" width="27.03" height="27.03" fill="#b980ff"/><rect x="837.84" y="648.65" width="27.03" height="27.03" fill="#b980ff"/><rect x="864.86" y="648.65" width="27.03" height="27.03" fill="#b980ff"/><rect x="324.32" y="675.68" width="27.03" height="27.03" fill="#b980ff"/><rect x="405.41" y="675.68" width="27.03" height="27.03" fill="#b980ff"/><rect x="459.46" y="675.68" width="27.03" height="27.03" fill="#b980ff"/><rect x="486.49" y="675.68" width="27.03" height="27.03" fill="#b980ff"/><rect x="513.51" y="675.68" width="27.03" height="27.03" fill="#b980ff"/><rect x="567.57" y="675.68" width="27.03" height="27.03" fill="#b980ff"/><rect x="594.59" y="675.68" width="27.03" height="27.03" fill="#b980ff"/><rect x="621.62" y="675.68" width="27.03" height="27.03" fill="#b980ff"/><rect x="648.65" y="675.68" width="27.03" height="27.03" fill="#b980ff"/><rect x="756.76" y="675.68" width="27.03" height="27.03" fill="#b980ff"/><rect x="783.78" y="675.68" width="27.03" height="27.03" fill="#b980ff"/><rect x="810.81" y="675.68" width="27.03" height="27.03" fill="#b980ff"/><rect x="837.84" y="675.68" width="27.03" height="27.03" fill="#b980ff"/><rect x="864.86" y="675.68" width="27.03" height="27.03" fill="#b980ff"/><rect x="108.11" y="702.70" width="27.03" height="27.03" fill="#b980ff"/><rect x="135.14" y="702.70" width="27.03" height="27.03" fill="#b980ff"/><rect x="162.16" y="702.70" width="27.03" height="27.03" fill="#b980ff"/><rect x="189.19" y="702.70" width="27.03" height="27.03" fill="#b980ff"/><rect x="216.22" y="702.70" width="27.03" height="27.03" fill="#b980ff"/><rect x="243.24" y="702.70" width="27.03" height="27.03" fill="#b980ff"/><rect x="270.27" y="702.70" width="27.03" height="27.03" fill="#b980ff"/><rect x="351.35" y="702.70" width="27.03" height="27.03" fill="#b980ff"/><rect x="459.46" y="702.70" width="27.03" height="27.03" fill="#b980ff"/><rect x="486.49" y="702.70" width="27.03" height="27.03" fill="#b980ff"/><rect x="513.51" y="702.70" width="27.03" height="27.03" fill="#b980ff"/><rect x="621.62" y="702.70" width="27.03" height="27.03" fill="#b980ff"/><rect x="648.65" y="702.70" width="27.03" height="27.03" fill="#b980ff"/><rect x="702.70" y="702.70" width="27.03" height="27.03" fill="#b980ff"/><rect x="756.76" y="702.70" width="27.03" height="27.03" fill="#b980ff"/><rect x="783.78" y="702.70" width="27.03" height="27.03" fill="#b980ff"/><rect x="810.81" y="702.70" width="27.03" height="27.03" fill="#b980ff"/><rect x="108.11" y="729.73" width="27.03" height="27.03" fill="#b980ff"/><rect x="270.27" y="729.73" width="27.03" height="27.03" fill="#b980ff"/><rect x="324.32" y="729.73" width="27.03" height="27.03" fill="#b980ff"/><rect x="351.35" y="729.73" width="27.03" height="27.03" fill="#b980ff"/><rect x="405.41" y="729.73" width="27.03" height="27.03" fill="#b980ff"/><rect x="459.46" y="729.73" width="27.03" height="27.03" fill="#b980ff"/><rect x="513.51" y="729.73" width="27.03" height="27.03" fill="#b980ff"/><rect x="540.54" y="729.73" width="27.03" height="27.03" fill="#b980ff"/><rect x="567.57" y="729.73" width="27.03" height="27.03" fill="#b980ff"/><rect x="621.62" y="729.73" width="27.03" height="27.03" fill="#b980ff"/><rect x="648.65" y="729.73" width="27.03" height="27.03" fill="#b980ff"/><rect x="756.76" y="729.73" width="27.03" height="27.03" fill="#b980ff"/><rect x="864.86" y="729.73" width="27.03" height="27.03" fill="#b980ff"/><rect x="108.11" y="756.76" width="27.03" height="27.03" fill="#b980ff"/><rect x="162.16" y="756.76" width="27.03" height="27.03" fill="#b980ff"/><rect x="189.19" y="756.76" width="27.03" height="27.03" fill="#b980ff"/><rect x="216.22" y="756.76" width="27.03" height="27.03" fill="#b980ff"/><rect x="270.27" y="756.76" width="27.03" height="27.03" fill="#b980ff"/><rect x="324.32" y="756.76" width="27.03" height="27.03" fill="#b980ff"/><rect x="378.38" y="756.76" width="27.03" height="27.03" fill="#b980ff"/><rect x="405.41" y="756.76" width="27.03" height="27.03" fill="#b980ff"/><rect x="432.43" y="756.76" width="27.03" height="27.03" fill="#b980ff"/><rect x="486.49" y="756.76" width="27.03" height="27.03" fill="#b980ff"/><rect x="540.54" y="756.76" width="27.03" height="27.03" fill="#b980ff"/><rect x="648.65" y="756.76" width="27.03" height="27.03" fill="#b980ff"/><rect x="675.68" y="756.76" width="27.03" height="27.03" fill="#b980ff"/><rect x="702.70" y="756.76" width="27.03" height="27.03" fill="#b980ff"/><rect x="729.73" y="756.76" width="27.03" height="27.03" fill="#b980ff"/><rect x="756.76" y="756.76" width="27.03" height="27.03" fill="#b980ff"/><rect x="810.81" y="756.76" width="27.03" height="27.03" fill="#b980ff"/><rect x="108.11" y="783.78" width="27.03" height="27.03" fill="#b980ff"/><rect x="162.16" y="783.78" width="27.03" height="27.03" fill="#b980ff"/><rect x="189.19" y="783.78" width="27.03" height="27.03" fill="#b980ff"/><rect x="216.22" y="783.78" width="27.03" height="27.03" fill="#b980ff"/><rect x="270.27" y="783.78" width="27.03" height="27.03" fill="#b980ff"/><rect x="324.32" y="783.78" width="27.03" height="27.03" fill="#b980ff"/><rect x="405.41" y="783.78" width="27.03" height="27.03" fill="#b980ff"/><rect x="432.43" y="783.78" width="27.03" height="27.03" fill="#b980ff"/><rect x="459.46" y="783.78" width="27.03" height="27.03" fill="#b980ff"/><rect x="513.51" y="783.78" width="27.03" height="27.03" fill="#b980ff"/><rect x="621.62" y="783.78" width="27.03" height="27.03" fill="#b980ff"/><rect x="783.78" y="783.78" width="27.03" height="27.03" fill="#b980ff"/><rect x="810.81" y="783.78" width="27.03" height="27.03" fill="#b980ff"/><rect x="108.11" y="810.81" width="27.03" height="27.03" fill="#b980ff"/><rect x="162.16" y="810.81" width="27.03" height="27.03" fill="#b980ff"/><rect x="189.19" y="810.81" width="27.03" height="27.03" fill="#b980ff"/><rect x="216.22" y="810.81" width="27.03" height="27.03" fill="#b980ff"/><rect x="270.27" y="810.81" width="27.03" height="27.03" fill="#b980ff"/><rect x="324.32" y="810.81" width="27.03" height="27.03" fill="#b980ff"/><rect x="351.35" y="810.81" width="27.03" height="27.03" fill="#b980ff"/><rect x="378.38" y="810.81" width="27.03" height="27.03" fill="#b980ff"/><rect x="432.43" y="810.81" width="27.03" height="27.03" fill="#b980ff"/><rect x="513.51" y="810.81" width="27.03" height="27.03" fill="#b980ff"/><rect x="594.59" y="810.81" width="27.03" height="27.03" fill="#b980ff"/><rect x="621.62" y="810.81" width="27.03" height="27.03" fill="#b980ff"/><rect x="675.68" y="810.81" width="27.03" height="27.03" fill="#b980ff"/><rect x="702.70" y="810.81" width="27.03" height="27.03" fill="#b980ff"/><rect x="729.73" y="810.81" width="27.03" height="27.03" fill="#b980ff"/><rect x="756.76" y="810.81" width="27.03" height="27.03" fill="#b980ff"/><rect x="783.78" y="810.81" width="27.03" height="27.03" fill="#b980ff"/><rect x="810.81" y="810.81" width="27.03" height="27.03" fill="#b980ff"/><rect x="837.84" y="810.81" width="27.03" height="27.03" fill="#b980ff"/><rect x="108.11" y="837.84" width="27.03" height="27.03" fill="#b980ff"/><rect x="270.27" y="837.84" width="27.03" height="27.03" fill="#b980ff"/><rect x="351.35" y="837.84" width="27.03" height="27.03" fill="#b980ff"/><rect x="378.38" y="837.84" width="27.03" height="27.03" fill="#b980ff"/><rect x="459.46" y="837.84" width="27.03" height="27.03" fill="#b980ff"/><rect x="513.51" y="837.84" width="27.03" height="27.03" fill="#b980ff"/><rect x="540.54" y="837.84" width="27.03" height="27.03" fill="#b980ff"/><rect x="567.57" y="837.84" width="27.03" height="27.03" fill="#b980ff"/><rect x="594.59" y="837.84" width="27.03" height="27.03" fill="#b980ff"/><rect x="648.65" y="837.84" width="27.03" height="27.03" fill="#b980ff"/><rect x="702.70" y="837.84" width="27.03" height="27.03" fill="#b980ff"/><rect x="729.73" y="837.84" width="27.03" height="27.03" fill="#b980ff"/><rect x="783.78" y="837.84" width="27.03" height="27.03" fill="#b980ff"/><rect x="837.84" y="837.84" width="27.03" height="27.03" fill="#b980ff"/><rect x="108.11" y="864.86" width="27.03" height="27.03" fill="#b980ff"/><rect x="135.14" y="864.86" width="27.03" height="27.03" fill="#b980ff"/><rect x="162.16" y="864.86" width="27.03" height="27.03" fill="#b980ff"/><rect x="189.19" y="864.86" width="27.03" height="27.03" fill="#b980ff"/><rect x="216.22" y="864.86" width="27.03" height="27.03" fill="#b980ff"/><rect x="243.24" y="864.86" width="27.03" height="27.03" fill="#b980ff"/><rect x="270.27" y="864.86" width="27.03" height="27.03" fill="#b980ff"/><rect x="324.32" y="864.86" width="27.03" height="27.03" fill="#b980ff"/><rect x="378.38" y="864.86" width="27.03" height="27.03" fill="#b980ff"/><rect x="459.46" y="864.86" width="27.03" height="27.03" fill="#b980ff"/><rect x="513.51" y="864.86" width="27.03" height="27.03" fill="#b980ff"/><rect x="567.57" y="864.86" width="27.03" height="27.03" fill="#b980ff"/><rect x="621.62" y="864.86" width="27.03" height="27.03" fill="#b980ff"/><rect x="675.68" y="864.86" width="27.03" height="27.03" fill="#b980ff"/><rect x="702.70" y="864.86" width="27.03" height="27.03" fill="#b980ff"/><rect x="756.76" y="864.86" width="27.03" height="27.03" fill="#b980ff"/><rect x="810.81" y="864.86" width="27.03" height="27.03" fill="#b980ff"/></svg>